<svg width="17" height="17" xmlns="http://www.w3.org/2000/svg"><path d="M9.852 8.25l6.296 6.297c.068.068.102.16.102.28a.377.377 0 0 1-.102.278l-1.168 1.168a.377.377 0 0 1-.279.102.377.377 0 0 1-.28-.102L8.126 9.977l-6.297 6.296a.377.377 0 0 1-.28.102.377.377 0 0 1-.278-.102L.102 15.105A.377.377 0 0 1 0 14.826c0-.118.034-.211.102-.28L6.398 8.25.102 1.953A.377.377 0 0 1 0 1.673c0-.118.034-.21.102-.278L1.27.227a.377.377 0 0 1 .279-.102c.118 0 .211.034.28.102l6.296 6.296L14.422.227a.377.377 0 0 1 .28-.102c.118 0 .21.034.278.102l1.168 1.168c.068.067.102.16.102.279a.377.377 0 0 1-.102.28L9.852 8.25z"/></svg>