<svg width="28" height="27" xmlns="http://www.w3.org/2000/svg"><path d="M25.812 8.934c.44.067.788.27 1.041.609.254.339.373.71.356 1.117a1.559 1.559 0 0 1-.483 1.067l-5.382 5.23 1.27 7.414a1.61 1.61 0 0 1-.23 1.143 1.49 1.49 0 0 1-.939.685 1.565 1.565 0 0 1-1.168-.152l-6.652-3.453-6.652 3.453a1.566 1.566 0 0 1-1.168.152 1.49 1.49 0 0 1-.94-.685 1.604 1.604 0 0 1-.228-1.143l1.27-7.414-5.384-5.23a1.559 1.559 0 0 1-.482-1.067 1.696 1.696 0 0 1 .355-1.117 1.54 1.54 0 0 1 1.041-.61l7.415-1.066 3.3-6.703c.203-.406.5-.677.889-.812a1.73 1.73 0 0 1 1.168 0c.39.135.685.406.889.812l3.3 6.703 7.414 1.067zm-6.195 7.464l5.992-5.84-8.277-1.218-3.707-7.465L9.918 9.34 1.69 10.559l5.942 5.84-1.371 8.226 7.363-3.91 7.414 3.91-1.422-8.227z"/></svg>