<svg width="33" height="24" xmlns="http://www.w3.org/2000/svg"><path d="M27.625 10.625c-1.117 0-2.074-.398-2.87-1.193-.795-.796-1.193-1.752-1.193-2.87 0-1.117.398-2.073 1.194-2.869.795-.795 1.752-1.193 2.869-1.193 1.117 0 2.073.398 2.87 1.193.795.796 1.192 1.752 1.192 2.87 0 1.117-.397 2.073-1.193 2.869-.796.795-1.752 1.193-2.87 1.193zm0-6.5a2.35 2.35 0 0 0-1.727.711 2.35 2.35 0 0 0-.71 1.727c0 .677.236 1.252.71 1.726A2.35 2.35 0 0 0 27.625 9a2.35 2.35 0 0 0 1.726-.71 2.35 2.35 0 0 0 .711-1.727 2.35 2.35 0 0 0-.71-1.727 2.35 2.35 0 0 0-1.727-.711zM16.25 12.25a5.596 5.596 0 0 1-2.844-.762 5.586 5.586 0 0 1-2.082-2.082 5.596 5.596 0 0 1-.762-2.843c0-1.016.254-1.964.762-2.844a5.586 5.586 0 0 1 2.082-2.082A5.596 5.596 0 0 1 16.25.875c1.016 0 1.963.254 2.844.762a5.586 5.586 0 0 1 2.082 2.082c.508.88.761 1.828.761 2.844a5.596 5.596 0 0 1-.761 2.843 5.586 5.586 0 0 1-2.082 2.082 5.596 5.596 0 0 1-2.844.762zm0-9.75c-1.117 0-2.074.398-2.87 1.193-.795.796-1.193 1.752-1.193 2.87 0 1.117.398 2.073 1.194 2.869.795.795 1.752 1.193 2.869 1.193 1.117 0 2.074-.398 2.87-1.193.795-.796 1.192-1.752 1.192-2.87 0-1.117-.397-2.073-1.193-2.869-.795-.795-1.752-1.193-2.869-1.193zm12.39 9.75c1.05 0 1.956.398 2.717 1.193.762.796 1.143 1.752 1.143 2.87a.79.79 0 0 1-.229.583.79.79 0 0 1-.584.229.79.79 0 0 1-.584-.229.79.79 0 0 1-.228-.583c0-.678-.22-1.253-.66-1.727-.44-.474-.965-.711-1.574-.711h-2.032a2.3 2.3 0 0 0-.812.152 8.104 8.104 0 0 0-1.27-1.117 3.616 3.616 0 0 1 2.082-.66h2.032zM4.876 10.625c-1.117 0-2.074-.398-2.87-1.193C1.21 8.636.813 7.68.813 6.562c0-1.117.398-2.073 1.194-2.869C2.8 2.898 3.758 2.5 4.875 2.5s2.074.398 2.87 1.193c.795.796 1.192 1.752 1.192 2.87 0 1.117-.397 2.073-1.193 2.869-.795.795-1.752 1.193-2.869 1.193zm0-6.5a2.35 2.35 0 0 0-1.727.711 2.35 2.35 0 0 0-.71 1.727c0 .677.236 1.252.71 1.726A2.35 2.35 0 0 0 4.875 9a2.35 2.35 0 0 0 1.727-.71 2.35 2.35 0 0 0 .71-1.727 2.35 2.35 0 0 0-.71-1.727 2.35 2.35 0 0 0-1.727-.711zm15.437 9.14a5.98 5.98 0 0 1 2.666.61c.83.406 1.499.999 2.006 1.777A5.6 5.6 0 0 1 26 18.902v2.286a2.35 2.35 0 0 1-.711 1.726 2.35 2.35 0 0 1-1.727.711H8.937a2.35 2.35 0 0 1-1.726-.71 2.35 2.35 0 0 1-.711-1.727v-2.286a5.6 5.6 0 0 1 1.016-3.25 4.958 4.958 0 0 1 2.005-1.777 5.98 5.98 0 0 1 2.666-.61c.542 0 1.168.102 1.88.305a8.677 8.677 0 0 0 2.183.305 8.69 8.69 0 0 0 2.184-.305c.71-.203 1.337-.304 1.878-.304zm4.063 7.923v-2.286c0-.846-.237-1.625-.711-2.336a3.724 3.724 0 0 0-1.422-1.244c-.575-.287-1.219-.431-1.93-.431-.406 0-.914.084-1.523.254a9.759 9.759 0 0 1-2.539.355 9.759 9.759 0 0 1-2.54-.355c-.608-.17-1.116-.254-1.523-.254a4.43 4.43 0 0 0-1.955.431 3.32 3.32 0 0 0-1.396 1.244 4.126 4.126 0 0 0-.711 2.336v2.286a.79.79 0 0 0 .228.583.79.79 0 0 0 .584.229h14.625a.79.79 0 0 0 .584-.229.79.79 0 0 0 .229-.583zM7.973 12.91a8.17 8.17 0 0 0-1.27 1.117 2.3 2.3 0 0 0-.812-.152H3.859c-.609 0-1.134.237-1.574.711-.44.474-.66 1.05-.66 1.727a.79.79 0 0 1-.229.583.79.79 0 0 1-.584.229.79.79 0 0 1-.583-.229.79.79 0 0 1-.229-.583c0-1.118.38-2.074 1.143-2.87.761-.795 1.667-1.193 2.716-1.193h2.032c.744 0 1.438.22 2.082.66z"/></svg>