<svg width="15" height="15" xmlns="http://www.w3.org/2000/svg"><path d="M11.937 6.649C9.519 5.213 5.53 5.08 3.223 5.782a.701.701 0 1 1-.407-1.343c2.65-.804 7.053-.649 9.837 1.003a.702.702 0 0 1-.716 1.207zm-.08 2.126a.585.585 0 0 1-.804.193C9.037 7.729 5.964 7.37 3.58 8.094a.586.586 0 0 1-.34-1.119c2.724-.826 6.11-.426 8.425.997a.584.584 0 0 1 .192.803zm-.917 2.043a.467.467 0 0 1-.643.155c-1.761-1.076-3.978-1.32-6.589-.723a.467.467 0 1 1-.208-.911c2.857-.653 5.308-.372 7.285.836.22.134.29.422.155.643zM7.5 0a7.5 7.5 0 1 0 0 15 7.5 7.5 0 0 0 0-15z" fill-rule="evenodd"/></svg>