<svg width="26" height="27" xmlns="http://www.w3.org/2000/svg"><path d="M25.848 24.727a.55.55 0 0 1 .152.406.74.74 0 0 1-.152.457l-.508.457a.631.631 0 0 1-.457.203.483.483 0 0 1-.406-.203l-6.551-6.55a.483.483 0 0 1-.203-.407v-.508c-.948.88-2.04 1.566-3.276 2.057a10.44 10.44 0 0 1-3.885.736c-1.93 0-3.698-.474-5.306-1.422a10.672 10.672 0 0 1-3.834-3.834C.474 14.511 0 12.742 0 10.813c0-1.93.474-3.699 1.422-5.307a10.672 10.672 0 0 1 3.834-3.834C6.864.724 8.633.25 10.562.25c1.93 0 3.699.474 5.307 1.422a10.672 10.672 0 0 1 3.834 3.834c.948 1.608 1.422 3.377 1.422 5.307 0 1.354-.245 2.649-.736 3.884a10.419 10.419 0 0 1-2.057 3.276h.508c.17 0 .321.067.457.203l6.55 6.55zM10.562 19.75c1.625 0 3.124-.398 4.495-1.193a8.804 8.804 0 0 0 3.25-3.25c.795-1.371 1.193-2.87 1.193-4.494 0-1.625-.398-3.124-1.193-4.495a8.804 8.804 0 0 0-3.25-3.25c-1.371-.795-2.87-1.193-4.495-1.193s-3.123.398-4.494 1.193a8.804 8.804 0 0 0-3.25 3.25c-.795 1.371-1.193 2.87-1.193 4.495s.398 3.123 1.193 4.494a8.804 8.804 0 0 0 3.25 3.25c1.371.795 2.87 1.193 4.494 1.193z"/></svg>